# xmcd
#
# Track frame offsets:
#	150
#	12664
#	26682
#	43067
#	57767
#	71592
#	88066
#	96865
#	109431
#	124318
#	140194
#	154072
#	168740
#	182670
#	192109
#	196933
#	208620
#	221571
#
# Disc length: 3173 seconds
#
# Revision: 0
# Processed by: cddbd v1.5.2PL0 Copyright (c) Steve Scherf et al.
# Submitted via: EasyCDDAExtractor 9.0.0.1
#
DISCID=140c6312
DTITLE=Smythe and Taylor - Live at the Hops House
DYEAR=2002
DGENRE=Country
TTITLE0=West Texas Wind (Jon Ims)
TTITLE1=Beatles Song (Gary Taylor)
TTITLE2=Just Don't Love You Enough (Jack Saunders)
TTITLE3=Vegamatic (Steve Goodman)
TTITLE4=Louise (Paul Siebel)
TTITLE5=My Real Hometown (T.C. Smythe)
TTITLE6=BlackBird (Lennon and McCartney)
TTITLE7=Up On The CP Line (Bill Morrissey)
TTITLE8=Blow Em Away (Chuck Brodsky)
TTITLE9=Rusty Old American Dream (David Wilcox)
TTITLE10=Shallow End Of The Gene Pool (Emily Kaltz)
TTITLE11=Cool Carolina Wind (The Dawson Boys)
TTITLE12=In Spite Of Ourselves (John Prine)
TTITLE13=Morning Tune (T.C. Smythe)
TTITLE14=You Can't Be A Wimp (Take 1)
TTITLE15=You Can't Be A Wimp and Live In Texas (Gary Taylor)
TTITLE16=Sweet Baby James (James Taylor)
TTITLE17=Tequila Sunrise (Don Henley and Glenn Frey)
EXTD=
EXTT0=
EXTT1=
EXTT2=
EXTT3=
EXTT4=
EXTT5=
EXTT6=
EXTT7=
EXTT8=
EXTT9=
EXTT10=
EXTT11=
EXTT12=
EXTT13=
EXTT14=
EXTT15=
EXTT16=
EXTT17=
PLAYORDER=
